<svg xmlns="http://www.w3.org/2000/svg" xmlns:xlink="http://www.w3.org/1999/xlink" width="2000" zoomAndPan="magnify" viewBox="0 0 1500 1499.999933" height="2000" preserveAspectRatio="xMidYMid meet" version="1.0"><defs><g/><clipPath id="036050d4cd"><path d="M 8.578125 329.390625 L 71.339844 329.390625 L 71.339844 1159.296875 L 8.578125 1159.296875 Z M 8.578125 329.390625 " clip-rule="nonzero"/></clipPath><clipPath id="8b1c163081"><path d="M 39.957031 329.390625 C 57.289062 329.390625 71.339844 343.441406 71.339844 360.773438 L 71.339844 1127.726562 C 71.339844 1145.058594 57.289062 1159.109375 39.957031 1159.109375 C 22.625 1159.109375 8.578125 1145.058594 8.578125 1127.726562 L 8.578125 360.773438 C 8.578125 343.441406 22.625 329.390625 39.957031 329.390625 Z M 39.957031 329.390625 " clip-rule="nonzero"/></clipPath><clipPath id="41bccfd52e"><path d="M 0.578125 0.390625 L 63.339844 0.390625 L 63.339844 830.199219 L 0.578125 830.199219 Z M 0.578125 0.390625 " clip-rule="nonzero"/></clipPath><clipPath id="f9f1e193a5"><path d="M 31.957031 0.390625 C 49.289062 0.390625 63.339844 14.441406 63.339844 31.773438 L 63.339844 798.726562 C 63.339844 816.058594 49.289062 830.109375 31.957031 830.109375 C 14.625 830.109375 0.578125 816.058594 0.578125 798.726562 L 0.578125 31.773438 C 0.578125 14.441406 14.625 0.390625 31.957031 0.390625 Z M 31.957031 0.390625 " clip-rule="nonzero"/></clipPath><clipPath id="4e80ad2d68"><rect x="0" width="64" y="0" height="831"/></clipPath><clipPath id="a4c1aefee5"><path d="M 172.984375 317.652344 L 496 317.652344 L 496 640.667969 L 172.984375 640.667969 Z M 172.984375 317.652344 " clip-rule="nonzero"/></clipPath><clipPath id="2b5b6278af"><path d="M 334.492188 317.652344 C 245.292969 317.652344 172.984375 389.964844 172.984375 479.160156 C 172.984375 568.359375 245.292969 640.667969 334.492188 640.667969 C 423.6875 640.667969 496 568.359375 496 479.160156 C 496 389.964844 423.6875 317.652344 334.492188 317.652344 Z M 334.492188 317.652344 " clip-rule="nonzero"/></clipPath><clipPath id="e27246eb5c"><path d="M 0.984375 0.652344 L 324 0.652344 L 324 323.667969 L 0.984375 323.667969 Z M 0.984375 0.652344 " clip-rule="nonzero"/></clipPath><clipPath id="aa355d7733"><path d="M 162.492188 0.652344 C 73.292969 0.652344 0.984375 72.964844 0.984375 162.160156 C 0.984375 251.359375 73.292969 323.667969 162.492188 323.667969 C 251.6875 323.667969 324 251.359375 324 162.160156 C 324 72.964844 251.6875 0.652344 162.492188 0.652344 Z M 162.492188 0.652344 " clip-rule="nonzero"/></clipPath><clipPath id="97f4e78327"><rect x="0" width="324" y="0" height="324"/></clipPath><clipPath id="72fbb5cfd6"><path d="M 8.578125 711.683594 L 660.40625 711.683594 L 660.40625 765.441406 L 8.578125 765.441406 Z M 8.578125 711.683594 " clip-rule="nonzero"/></clipPath><clipPath id="8ef498b8d2"><path d="M 8.578125 738.5625 C 8.578125 731.433594 11.410156 724.597656 16.449219 719.554688 C 21.492188 714.515625 28.328125 711.683594 35.457031 711.683594 L 633.527344 711.683594 C 640.65625 711.683594 647.492188 714.515625 652.535156 719.554688 C 657.574219 724.597656 660.40625 731.433594 660.40625 738.5625 C 660.40625 745.691406 657.574219 752.527344 652.535156 757.570312 C 647.492188 762.609375 640.65625 765.441406 633.527344 765.441406 L 35.457031 765.441406 C 28.328125 765.441406 21.492188 762.609375 16.449219 757.570312 C 11.410156 752.527344 8.578125 745.691406 8.578125 738.5625 Z M 8.578125 738.5625 " clip-rule="nonzero"/></clipPath><clipPath id="b65582a3d4"><path d="M 0.578125 0.683594 L 652.40625 0.683594 L 652.40625 54.441406 L 0.578125 54.441406 Z M 0.578125 0.683594 " clip-rule="nonzero"/></clipPath><clipPath id="ed0bbee9df"><path d="M 0.578125 27.5625 C 0.578125 20.433594 3.410156 13.597656 8.449219 8.554688 C 13.492188 3.515625 20.328125 0.683594 27.457031 0.683594 L 625.527344 0.683594 C 632.65625 0.683594 639.492188 3.515625 644.535156 8.554688 C 649.574219 13.597656 652.40625 20.433594 652.40625 27.5625 C 652.40625 34.691406 649.574219 41.527344 644.535156 46.570312 C 639.492188 51.609375 632.65625 54.441406 625.527344 54.441406 L 27.457031 54.441406 C 20.328125 54.441406 13.492188 51.609375 8.449219 46.570312 C 3.410156 41.527344 0.578125 34.691406 0.578125 27.5625 Z M 0.578125 27.5625 " clip-rule="nonzero"/></clipPath><clipPath id="e255340058"><rect x="0" width="653" y="0" height="55"/></clipPath><clipPath id="70a0363b77"><path d="M 172.984375 836.09375 L 496 836.09375 L 496 1159.109375 L 172.984375 1159.109375 Z M 172.984375 836.09375 " clip-rule="nonzero"/></clipPath><clipPath id="23700a981a"><path d="M 334.492188 836.09375 C 245.292969 836.09375 172.984375 908.402344 172.984375 997.601562 C 172.984375 1086.800781 245.292969 1159.109375 334.492188 1159.109375 C 423.6875 1159.109375 496 1086.800781 496 997.601562 C 496 908.402344 423.6875 836.09375 334.492188 836.09375 Z M 334.492188 836.09375 " clip-rule="nonzero"/></clipPath><clipPath id="ff4ce52458"><path d="M 0.984375 0.09375 L 324 0.09375 L 324 323.109375 L 0.984375 323.109375 Z M 0.984375 0.09375 " clip-rule="nonzero"/></clipPath><clipPath id="6cefdc5022"><path d="M 162.492188 0.09375 C 73.292969 0.09375 0.984375 72.402344 0.984375 161.601562 C 0.984375 250.800781 73.292969 323.109375 162.492188 323.109375 C 251.6875 323.109375 324 250.800781 324 161.601562 C 324 72.402344 251.6875 0.09375 162.492188 0.09375 Z M 162.492188 0.09375 " clip-rule="nonzero"/></clipPath><clipPath id="6cb8d1afda"><rect x="0" width="324" y="0" height="324"/></clipPath><clipPath id="0048fa0929"><rect x="0" width="729" y="0" height="781"/></clipPath></defs><g clip-path="url(#036050d4cd)"><g clip-path="url(#8b1c163081)"><g transform="matrix(1, 0, 0, 1, 8, 329)"><g clip-path="url(#4e80ad2d68)"><g clip-path="url(#41bccfd52e)"><g clip-path="url(#f9f1e193a5)"><path fill="#996515" d="M 0.578125 0.390625 L 63.339844 0.390625 L 63.339844 830.050781 L 0.578125 830.050781 Z M 0.578125 0.390625 " fill-opacity="1" fill-rule="nonzero"/></g></g></g></g></g></g><g clip-path="url(#a4c1aefee5)"><g clip-path="url(#2b5b6278af)"><g transform="matrix(1, 0, 0, 1, 172, 317)"><g clip-path="url(#97f4e78327)"><g clip-path="url(#e27246eb5c)"><g clip-path="url(#aa355d7733)"><path fill="#d4af37" d="M 0.984375 0.652344 L 324 0.652344 L 324 323.667969 L 0.984375 323.667969 Z M 0.984375 0.652344 " fill-opacity="1" fill-rule="nonzero"/></g></g></g></g><path stroke-linecap="butt" transform="matrix(0.75, 0, 0, 0.75, 172.982656, 317.653693)" fill="none" stroke-linejoin="miter" d="M 215.34606 -0.00179852 C 96.413759 -0.00179852 0.00229193 96.414876 0.00229193 215.34197 C 0.00229193 334.274272 96.413759 430.685739 215.34606 430.685739 C 334.273154 430.685739 430.689829 334.274272 430.689829 215.34197 C 430.689829 96.414876 334.273154 -0.00179852 215.34606 -0.00179852 Z M 215.34606 -0.00179852 " stroke="#000000" stroke-width="8" stroke-opacity="1" stroke-miterlimit="4"/></g></g><g clip-path="url(#72fbb5cfd6)"><g clip-path="url(#8ef498b8d2)"><g transform="matrix(1, 0, 0, 1, 8, 711)"><g clip-path="url(#e255340058)"><g clip-path="url(#b65582a3d4)"><g clip-path="url(#ed0bbee9df)"><path fill="#996515" d="M 0.578125 54.441406 L 0.578125 0.683594 L 652.40625 0.683594 L 652.40625 54.441406 Z M 0.578125 54.441406 " fill-opacity="1" fill-rule="nonzero"/></g></g></g></g></g></g><g clip-path="url(#70a0363b77)"><g clip-path="url(#23700a981a)"><g transform="matrix(1, 0, 0, 1, 172, 836)"><g clip-path="url(#6cb8d1afda)"><g clip-path="url(#ff4ce52458)"><g clip-path="url(#6cefdc5022)"><path fill="#d4af37" d="M 0.984375 0.09375 L 324 0.09375 L 324 323.109375 L 0.984375 323.109375 Z M 0.984375 0.09375 " fill-opacity="1" fill-rule="nonzero"/></g></g></g></g><path stroke-linecap="butt" transform="matrix(0.75, 0, 0, 0.75, 172.982656, 836.094172)" fill="none" stroke-linejoin="miter" d="M 215.34606 -0.000562646 C 96.413759 -0.000562646 0.00229193 96.410904 0.00229193 215.343206 C 0.00229193 334.275508 96.413759 430.686974 215.34606 430.686974 C 334.273154 430.686974 430.689829 334.275508 430.689829 215.343206 C 430.689829 96.410904 334.273154 -0.000562646 215.34606 -0.000562646 Z M 215.34606 -0.000562646 " stroke="#000000" stroke-width="8" stroke-opacity="1" stroke-miterlimit="4"/></g></g><g transform="matrix(1, 0, 0, 1, 760, 330)"><g clip-path="url(#0048fa0929)"><g fill="#ffffff" fill-opacity="1"><g transform="translate(0.915925, 633.082726)"><g><path d="M 216.59375 -421.5 C 253.5625 -421.5 285.957031 -413.128906 313.78125 -396.390625 C 341.613281 -379.660156 363.21875 -355.628906 378.59375 -324.296875 C 393.96875 -292.960938 401.65625 -254.921875 401.65625 -210.171875 C 401.65625 -166.578125 393.769531 -128.429688 378 -95.734375 C 362.238281 -63.046875 340.347656 -37.554688 312.328125 -19.265625 C 284.304688 -0.972656 252.195312 8.171875 216 8.171875 C 179.03125 8.171875 146.628906 -0.191406 118.796875 -16.921875 C 90.972656 -33.660156 69.375 -57.789062 54 -89.3125 C 38.625 -120.84375 30.9375 -158.789062 30.9375 -203.15625 C 30.9375 -246.75 38.914062 -284.890625 54.875 -317.578125 C 70.832031 -350.273438 92.722656 -375.769531 120.546875 -394.0625 C 148.378906 -412.351562 180.394531 -421.5 216.59375 -421.5 Z M 214.25 -411 C 188.957031 -411 166.96875 -402.238281 148.28125 -384.71875 C 129.601562 -367.207031 115.109375 -343.078125 104.796875 -312.328125 C 94.484375 -281.585938 89.328125 -245.976562 89.328125 -205.5 C 89.328125 -164.238281 95.066406 -128.332031 106.546875 -97.78125 C 118.023438 -67.226562 133.59375 -43.679688 153.25 -27.140625 C 172.90625 -10.597656 194.601562 -2.328125 218.34375 -2.328125 C 243.632812 -2.328125 265.617188 -11.082031 284.296875 -28.59375 C 302.984375 -46.113281 317.484375 -70.34375 327.796875 -101.28125 C 338.109375 -132.226562 343.265625 -167.742188 343.265625 -207.828125 C 343.265625 -249.472656 337.523438 -285.472656 326.046875 -315.828125 C 314.566406 -346.191406 299.097656 -369.644531 279.640625 -386.1875 C 260.179688 -402.726562 238.382812 -411 214.25 -411 Z M 214.25 -411 "/></g></g></g><g fill="#ffffff" fill-opacity="1"><g transform="translate(399.650974, 633.082726)"><g><path d="M 315.828125 -413.328125 C 314.273438 -399.703125 313.207031 -386.46875 312.625 -373.625 C 312.039062 -360.78125 311.75 -351.050781 311.75 -344.4375 C 311.75 -337.4375 311.941406 -330.722656 312.328125 -324.296875 C 312.722656 -317.878906 313.113281 -312.53125 313.5 -308.25 L 300.078125 -308.25 C 297.734375 -331.207031 294.421875 -349.398438 290.140625 -362.828125 C 285.859375 -376.253906 278.5625 -385.789062 268.25 -391.4375 C 257.9375 -397.082031 242.46875 -399.90625 221.84375 -399.90625 L 173.390625 -399.90625 C 160.148438 -399.90625 150.125 -398.832031 143.3125 -396.6875 C 136.507812 -394.550781 131.9375 -390.078125 129.59375 -383.265625 C 127.257812 -376.453125 126.09375 -365.847656 126.09375 -351.453125 L 126.09375 -61.875 C 126.09375 -47.863281 127.257812 -37.351562 129.59375 -30.34375 C 131.9375 -23.34375 136.507812 -18.769531 143.3125 -16.625 C 150.125 -14.488281 160.148438 -13.421875 173.390625 -13.421875 L 216 -13.421875 C 240.519531 -13.421875 259.101562 -16.726562 271.75 -23.34375 C 284.40625 -29.96875 293.550781 -40.769531 299.1875 -55.75 C 304.832031 -70.738281 309.019531 -91.078125 311.75 -116.765625 L 325.171875 -116.765625 C 324.003906 -106.253906 323.421875 -92.238281 323.421875 -74.71875 C 323.421875 -67.332031 323.710938 -56.726562 324.296875 -42.90625 C 324.878906 -29.09375 325.953125 -14.789062 327.515625 0 C 307.660156 -0.78125 285.28125 -1.265625 260.375 -1.453125 C 235.46875 -1.648438 213.285156 -1.75 193.828125 -1.75 C 185.265625 -1.75 174.265625 -1.75 160.828125 -1.75 C 147.398438 -1.75 132.898438 -1.648438 117.328125 -1.453125 C 101.765625 -1.265625 86.003906 -1.070312 70.046875 -0.875 C 54.097656 -0.675781 38.921875 -0.382812 24.515625 0 L 24.515625 -11.671875 C 37.753906 -12.453125 47.773438 -14.007812 54.578125 -16.34375 C 61.390625 -18.675781 65.960938 -23.34375 68.296875 -30.34375 C 70.640625 -37.351562 71.8125 -47.863281 71.8125 -61.875 L 71.8125 -351.453125 C 71.8125 -365.847656 70.640625 -376.453125 68.296875 -383.265625 C 65.960938 -390.078125 61.390625 -394.742188 54.578125 -397.265625 C 47.773438 -399.796875 37.753906 -401.257812 24.515625 -401.65625 L 24.515625 -413.328125 C 38.921875 -412.941406 54.097656 -412.648438 70.046875 -412.453125 C 86.003906 -412.253906 101.765625 -412.054688 117.328125 -411.859375 C 132.898438 -411.671875 147.398438 -411.578125 160.828125 -411.578125 C 174.265625 -411.578125 185.265625 -411.578125 193.828125 -411.578125 C 211.722656 -411.578125 232.054688 -411.671875 254.828125 -411.859375 C 277.597656 -412.054688 297.929688 -412.546875 315.828125 -413.328125 Z M 215.421875 -213.671875 C 215.421875 -213.671875 215.421875 -211.722656 215.421875 -207.828125 C 215.421875 -203.941406 215.421875 -202 215.421875 -202 L 108.59375 -202 C 108.59375 -202 108.59375 -203.941406 108.59375 -207.828125 C 108.59375 -211.722656 108.59375 -213.671875 108.59375 -213.671875 Z M 232.34375 -290.734375 C 230.789062 -268.546875 230.109375 -251.613281 230.296875 -239.9375 C 230.492188 -228.257812 230.59375 -217.554688 230.59375 -207.828125 C 230.59375 -198.097656 230.785156 -187.394531 231.171875 -175.71875 C 231.566406 -164.039062 232.546875 -147.113281 234.109375 -124.9375 L 220.671875 -124.9375 C 219.117188 -137.382812 217.269531 -149.539062 215.125 -161.40625 C 212.988281 -173.28125 208.316406 -183.015625 201.109375 -190.609375 C 193.910156 -198.203125 181.75 -202 164.625 -202 L 164.625 -213.671875 C 177.46875 -213.671875 187.296875 -216.296875 194.109375 -221.546875 C 200.921875 -226.804688 205.882812 -233.519531 209 -241.6875 C 212.113281 -249.863281 214.253906 -258.328125 215.421875 -267.078125 C 216.585938 -275.835938 217.753906 -283.722656 218.921875 -290.734375 Z M 232.34375 -290.734375 "/></g></g></g></g></g></svg>